<?xml version="1.0" standalone="no"?>
<!DOCTYPE svg PUBLIC "-//W3C//DTD SVG 20010904//EN"
 "http://www.w3.org/TR/2001/REC-SVG-20010904/DTD/svg10.dtd">
<svg version="1.0" xmlns="http://www.w3.org/2000/svg"
 width="268.000000pt" height="230.000000pt" viewBox="0 0 268.000000 230.000000"
 preserveAspectRatio="xMidYMid meet">

<g transform="translate(0.000000,230.000000) scale(0.100000,-0.100000)"
fill="#000000" stroke="none">
<path d="M2270 2188 c-30 -28 -86 -82 -125 -118 -38 -36 -144 -136 -235 -221
l-165 -154 -5 160 c-6 194 -17 226 -96 265 -45 23 -60 25 -179 25 -153 0 -195
-15 -232 -81 -12 -21 -56 -169 -98 -329 -92 -349 -106 -398 -111 -393 -2 2
-44 155 -93 338 -49 184 -96 351 -105 372 -33 76 -113 104 -277 96 -119 -6
-175 -29 -207 -87 -22 -39 -22 -40 -22 -657 0 -604 0 -619 21 -660 57 -119
232 -119 297 -1 15 28 18 74 22 367 l5 335 74 -295 c102 -408 114 -436 202
-475 37 -17 43 -17 53 -4 6 9 72 86 146 173 l135 157 56 222 c31 122 59 215
63 207 3 -8 7 -73 8 -144 l3 -129 86 99 c113 131 524 613 673 789 66 77 130
152 144 168 41 43 22 31 -38 -25z"/>
<path d="M1929 1481 c-36 -42 -173 -202 -304 -356 -132 -154 -289 -338 -350
-410 -421 -492 -582 -683 -595 -700 -23 -31 97 78 430 389 168 156 306 283
307 282 2 -1 -29 -83 -68 -182 -39 -98 -77 -203 -85 -233 -21 -82 0 -142 68
-191 76 -56 191 -36 237 41 11 18 41 87 67 155 l47 124 252 0 252 0 33 -87
c46 -122 83 -193 119 -227 25 -24 42 -30 90 -34 74 -5 122 16 163 72 46 64 38
131 -39 321 -33 83 -100 247 -148 365 -48 118 -123 304 -166 413 -86 214 -115
266 -163 296 -74 46 -75 46 -147 -38z m80 -591 l67 -185 -139 -3 c-77 -1 -141
-1 -143 1 -3 3 106 314 132 377 8 18 1 34 83 -190z"/>
</g>
</svg>
